<?xml version="1.0" encoding="UTF-8"?>
<svg version="1.1" xmlns="http://www.w3.org/2000/svg" width="870" height="390">
<path d="M0 0 C9.4901085 8.47495913 13.75299607 18.89969517 17.5625 30.75 C21.67850927 43.49127711 27.88075077 53.62726408 40 60 C53.95019349 65.57297806 66.34890758 66.95312141 80.42578125 60.96875 C84.74257398 58.87747234 88.85325175 56.49708101 92.97460938 54.04638672 C114.63621933 41.27938173 139.46391733 37.73748457 163.93603516 43.45654297 C186.36755986 49.3629274 207.66236214 65.06481609 219.4765625 85.08203125 C224.14425332 93.37119017 227.85351152 101.6906439 230 111 C230.33451172 112.40958984 230.33451172 112.40958984 230.67578125 113.84765625 C235.60596371 139.30349631 231.93675929 166.14235494 217.67822266 187.91992188 C212.95523576 194.79329158 207.27261235 202.05456242 200.38896179 206.79998779 C197.80115632 208.7868753 197.80115632 208.7868753 197.29914856 211.65704346 C197.26593002 212.66901794 197.23271149 213.68099243 197.19848633 214.72363281 C197.15213043 215.88109009 197.10577454 217.03854736 197.05801392 218.2310791 C197.02929703 220.09669495 197.02929703 220.09669495 197 222 C196.9732016 223.26211304 196.9464032 224.52422607 196.91879272 225.82458496 C196.86629005 229.27998476 196.84007922 232.73333347 196.83133507 236.18898773 C196.82400698 238.48832082 196.80822769 240.7874596 196.78999329 243.08673096 C196.73826818 249.61443444 196.68964657 256.14201772 196.67407227 262.66992188 C196.66385813 266.69224947 196.63421759 270.71406157 196.59275246 274.73618317 C196.58064224 276.24602571 196.57528353 277.75594158 196.57755089 279.26583099 C196.60292501 301.66970165 190.66260926 320.99062401 174.69140625 337.3671875 C157.167191 354.02220168 136.63620989 357.56029314 113.26171875 357.2734375 C95.57093903 356.74015329 79.83003891 348.99588777 67 337 C66.20851563 336.26265625 65.41703125 335.5253125 64.6015625 334.765625 C51.73087753 321.67530376 45.79153688 303.32995501 45.88647461 285.22875977 C45.88632858 284.48646622 45.88618256 283.74417267 45.8860321 282.97938538 C45.88672326 280.55002824 45.89447797 278.12074983 45.90234375 275.69140625 C45.90421077 273.99747255 45.90563333 272.30353831 45.90663147 270.60960388 C45.91043432 266.16926562 45.92024538 261.7289605 45.93133545 257.28863525 C45.94159773 252.75037077 45.94613938 248.21210089 45.95117188 243.67382812 C45.9618698 234.78253759 45.9789192 225.89127156 46 217 C44.54460152 217.94469522 43.09251212 218.89448978 41.6418457 219.84643555 C40.83286331 220.37480515 40.02388092 220.90317474 39.19038391 221.44755554 C30.27462374 227.7666407 26.2326524 239.61834891 24.43969727 249.92504883 C23.69419688 255.13858426 23.43417753 260.37093886 23.125 265.625 C21.58829617 287.4421909 16.08255374 308.06206549 3 326 C2.26136719 327.03253906 1.52273437 328.06507813 0.76171875 329.12890625 C-18.25285387 355.11857686 -44.46290179 371.04143436 -76 377.3125 C-110.10888591 382.58871829 -141.59982652 374.80214471 -169.703125 355.10546875 C-196.5014991 334.74047916 -212.56575808 306.2524475 -217.29003906 272.95581055 C-221.29095895 240.85165501 -214.77536606 209.03210017 -195.625 182.6875 C-175.32836077 156.97373348 -150.21388316 140.83349575 -117.921875 134.859375 C-101.66425485 132.12729929 -101.66425485 132.12729929 -87 125 C-85.91138672 124.28457031 -85.91138672 124.28457031 -84.80078125 123.5546875 C-76.73219684 117.43793208 -71.20742158 106.72780394 -69 97 C-67.75084187 83.82573926 -70.88538782 73.94140206 -76.83203125 62.4140625 C-83.06689877 49.52727947 -83.17962675 35.53093172 -79 22 C-74.22450751 9.31340863 -64.81038577 -1.42575208 -52.5625 -7.3125 C-35.20898697 -14.23005159 -14.8963248 -11.32512049 0 0 Z M78 210 C77.93019593 220.35379608 77.87703527 230.7075353 77.84456348 241.06151962 C77.82897116 245.87036254 77.80785175 250.67904333 77.77368164 255.48779297 C77.74085705 260.13678815 77.72309873 264.78562832 77.71536827 269.43473053 C77.70986592 271.19996833 77.69912232 272.96519857 77.68280983 274.73036957 C77.54971446 289.74266857 78.35931918 303.58132685 89.0390625 315.22265625 C99.10951267 324.74154466 110.39997577 328.52943825 124.1484375 328.3125 C135.68226686 327.37669234 146.44706848 322.08350128 154.375 313.6875 C166.85966617 298.68576404 165.19157643 277.9781316 165.125 259.5625 C165.12411377 258.84853058 165.12322754 258.13456116 165.12231445 257.3989563 C165.10705193 246.9064138 164.89428499 236.45994056 164 226 C162.73285156 226.144375 161.46570313 226.28875 160.16015625 226.4375 C158.46096575 226.62525586 156.76174537 226.81274139 155.0625 227 C154.23169922 227.09539062 153.40089844 227.19078125 152.54492188 227.2890625 C130.30465788 229.71212628 110.91104385 224.34676383 91.18115234 214.390625 C90.33504395 213.9678125 89.48893555 213.545 88.6171875 213.109375 C87.49739502 212.53654785 87.49739502 212.53654785 86.35498047 211.95214844 C83.59541616 210.83642163 80.93416488 210.45305181 78 210 Z " fill="#5AA586" transform="translate(218,11)"/>
<path d="M0 0 C0.63856934 0.16628906 1.27713867 0.33257812 1.93505859 0.50390625 C28.47172171 7.56118184 50.64929786 23.34506164 65 47 C79.55312262 72.67798418 82.44756731 104.61280582 74.61328125 132.97265625 C66.4379932 159.58975395 49.46180807 181.90572084 24.73828125 195.1484375 C14.0457242 200.59799158 2.82084317 203.99240433 -9 206 C-9.73863281 206.13148438 -10.47726563 206.26296875 -11.23828125 206.3984375 C-38.43162253 210.30583023 -67.27384748 203.77204868 -89.4375 187.5 C-91.30571317 186.01753125 -93.16101588 184.51857546 -95 183 C-95.78761719 182.37609375 -96.57523438 181.7521875 -97.38671875 181.109375 C-113.23412312 167.94469004 -122.52246672 149.48455878 -128 130 C-128.34160156 128.81148437 -128.68320313 127.62296875 -129.03515625 126.3984375 C-135.53851685 99.5985422 -130.29571393 70.48636843 -116.75 46.74609375 C-102.35475793 24.15713131 -80.32321727 6.46370815 -54 0 C-36.00136522 -3.95806302 -17.90141822 -4.76858402 0 0 Z " fill="#303333" transform="translate(147,166)"/>
<path d="M0 0 C1.25159912 0.00523682 2.50319824 0.01047363 3.79272461 0.01586914 C4.78942421 0.01799156 4.78942421 0.01799156 5.80625916 0.02015686 C7.93590735 0.02577021 10.06545175 0.03832485 12.19506836 0.05102539 C13.63582205 0.05603868 15.07657739 0.06060188 16.51733398 0.06469727 C20.05577938 0.07574394 23.59416375 0.09301747 27.13256836 0.11352539 C27.14388149 1.1714863 27.14388149 1.1714863 27.15542316 2.25082016 C27.34037628 19.4547052 27.54119803 36.65833281 27.7594347 53.86182785 C27.86459654 62.18149751 27.96449131 70.50116672 28.05175781 78.82104492 C28.12788006 86.07714541 28.21411807 93.33304511 28.31223696 100.58888268 C28.363789 104.42673015 28.41045564 108.26448995 28.44498634 112.10253143 C28.47772961 115.72406847 28.52412137 119.34518793 28.58044243 122.96643257 C28.60728268 124.91063427 28.62013739 126.8550138 28.63238525 128.79936218 C28.85904042 141.62980919 31.09175954 153.36106493 39.94897461 163.11352539 C49.66262437 172.21884557 61.16329207 175.63301101 74.28100586 175.42602539 C85.41378109 174.52275762 96.3431136 169.48620744 104.00756836 161.30102539 C116.44648029 145.93531065 114.27049229 124.34661495 114.15087891 105.75799561 C114.00577931 81.83058783 114.28947052 57.91277542 114.63256836 33.98852539 C114.6445929 33.14538033 114.65661743 32.30223526 114.66900635 31.43354034 C114.81802124 20.99345084 114.97229311 10.55344813 115.13256836 0.11352539 C119.38671459 0.08886917 123.64082334 0.07068641 127.89501953 0.05859375 C129.34326908 0.05355438 130.79151353 0.04672286 132.23974609 0.03808594 C134.31731424 0.02600292 136.39481533 0.02029328 138.47241211 0.01586914 C139.72401123 0.01063232 140.97561035 0.00539551 142.26513672 0 C145.13256836 0.11352539 145.13256836 0.11352539 146.13256836 1.11352539 C146.26166815 2.87865757 146.32112468 4.64891095 146.35375977 6.41845703 C146.37686722 7.57005814 146.39997467 8.72165924 146.42378235 9.90815735 C146.44369736 11.18378036 146.46361237 12.45940338 146.48413086 13.77368164 C146.50792629 15.1227806 146.53191255 16.47187621 146.55607605 17.82096863 C146.6328693 22.27252654 146.69619558 26.72423183 146.75756836 31.17602539 C146.76832272 31.93503647 146.77907707 32.69404755 146.79015732 33.47605896 C147.13471893 57.99264024 147.21627911 82.50442324 146.966362 107.02225876 C146.94523308 109.34541422 146.93120396 111.6685104 146.91925049 113.99172974 C146.76441902 141.33438089 144.95045755 164.84340551 124.82397461 185.48071289 C107.29975936 202.13572707 86.76877825 205.67381853 63.39428711 205.38696289 C45.70350739 204.85367868 29.96260726 197.10941316 17.13256836 185.11352539 C16.34108398 184.37618164 15.54959961 183.63883789 14.73413086 182.87915039 C-0.15868472 167.7321912 -4.02914107 147.95488142 -3.99682617 127.4831543 C-3.99818273 126.10445103 -3.99996409 124.72574812 -4.00213623 123.3470459 C-4.00667773 119.6202303 -4.00493523 115.89344251 -4.00175714 112.16662645 C-3.99921961 108.26467853 -4.00157468 104.36273293 -4.00314331 100.46078491 C-4.00495964 93.91582818 -4.00257142 87.37088275 -3.99780273 80.82592773 C-3.9923475 73.25101591 -3.99413405 65.67613096 -3.99962914 58.10121977 C-4.00415931 51.59665592 -4.00481171 45.09210018 -4.00219047 38.58753526 C-4.00062892 34.70259496 -4.0004309 30.81766731 -4.00372696 26.93272781 C-4.00660473 23.28673281 -4.00463177 19.6407727 -3.9988327 15.99478149 C-3.99686964 14.01144459 -3.99985886 12.02810474 -4.00296021 10.04476929 C-3.99873047 8.29090912 -3.99873047 8.29090912 -3.99441528 6.50161743 C-3.99403826 5.47922281 -3.99366123 4.45682819 -3.99327278 3.40345192 C-3.80496881 -0.02310833 -3.48080583 0.13780968 0 0 Z " fill="#303333" transform="translate(267.867431640625,162.886474609375)"/>
<path d="M0 0 C3 1 3 1 4.73901367 4.21411133 C5.392946 5.66520076 6.03502104 7.1216665 6.66796875 8.58203125 C7.01945984 9.36993546 7.37095093 10.15783966 7.73309326 10.96961975 C8.89456646 13.57960034 10.04091063 16.19595077 11.1875 18.8125 C11.99908308 20.64318378 12.81167713 22.47341968 13.62524414 24.30322266 C15.70168416 28.97914666 17.7664728 33.66011647 19.82836914 38.34246826 C22.53096488 44.472585 25.25602581 50.59275645 27.97756958 56.71447754 C28.94570727 58.89347217 29.91231273 61.07314145 30.87866211 63.25292969 C36.51486032 75.95778513 42.24339509 88.62022799 47.98147583 101.27932739 C53.77251732 114.05641478 59.51407456 126.8533222 65.1953125 139.6796875 C68.19170033 146.44211943 71.22035191 153.1899193 74.25 159.9375 C76.18502327 164.25310523 78.11888584 168.56922966 80.0524292 172.88549805 C81.07881483 175.1758751 82.10606407 177.46586391 83.13330078 179.75585938 C84.99784183 183.91366209 86.85812362 188.07335093 88.71594238 192.23416138 C89.44451752 193.86420935 90.17440811 195.49367002 90.90563965 197.12252808 C91.92624075 199.39655893 92.94218077 201.67261692 93.95703125 203.94921875 C94.26572647 204.63425476 94.57442169 205.31929077 94.89247131 206.02508545 C97 210.77190538 97 210.77190538 97 213 C92.53435699 213.12397147 88.06963561 213.21450992 83.6027832 213.2746582 C82.08470199 213.29974109 80.56674082 213.3338166 79.04907227 213.37719727 C76.86184035 213.43813293 74.67620961 213.46626895 72.48828125 213.48828125 C71.17384033 213.51446533 69.85939941 213.54064941 68.50512695 213.56762695 C64.06991568 212.84938037 62.73657916 211.49988436 60 208 C58.62548828 205.4831543 58.62548828 205.4831543 57.5703125 202.82421875 C57.17054199 201.83824707 56.77077148 200.85227539 56.35888672 199.83642578 C55.9517041 198.79728027 55.54452148 197.75813477 55.125 196.6875 C54.25648738 194.53203627 53.38669055 192.37708956 52.515625 190.22265625 C52.09216797 189.1670752 51.66871094 188.11149414 51.23242188 187.02392578 C49.25923148 182.18241702 47.13430722 177.41081315 44.98095703 172.6472168 C43 168.20786915 43 168.20786915 43 166 C14.62 166 -13.76 166 -43 166 C-53.54449182 188.47930511 -53.54449182 188.47930511 -64 211 C-66 213 -66 213 -69.16455078 213.22705078 C-70.50817963 213.22673389 -71.8518341 213.21542181 -73.1953125 213.1953125 C-73.90275604 213.1924826 -74.61019958 213.18965271 -75.33908081 213.18673706 C-77.6012251 213.17553137 -79.86297515 213.15042679 -82.125 213.125 C-83.65754637 213.11497067 -85.19009894 213.10584474 -86.72265625 213.09765625 C-90.48192301 213.07559086 -94.24089464 213.04105896 -98 213 C-97.47948168 207.92414561 -96.35089035 204.07759808 -94.078125 199.51953125 C-93.78228012 198.91823395 -93.48643524 198.31693665 -93.18162537 197.69741821 C-92.54505652 196.40581759 -91.90417533 195.11633486 -91.2593689 193.8288269 C-89.51865131 190.35154946 -87.81099286 186.85801336 -86.09765625 183.3671875 C-85.74826492 182.65765427 -85.3988736 181.94812103 -85.03889465 181.21708679 C-81.82050272 174.6702303 -78.7367961 168.06472796 -75.6875 161.4375 C-70.58813778 150.38424486 -65.40639193 139.37228036 -60.1875 128.375 C-58.6418073 125.11724432 -57.09621772 121.85943975 -55.55078125 118.6015625 C-55.16876053 117.79626602 -54.78673981 116.99096954 -54.3931427 116.16127014 C-50.53805209 108.03156632 -46.70368962 99.89216433 -42.875 91.75 C-42.54881683 91.05638367 -42.22263367 90.36276733 -41.88656616 89.64813232 C-40.24667299 86.16074276 -38.60713322 82.6731872 -36.96777344 79.18554688 C-33.98009831 72.8299133 -30.98911177 66.47583811 -27.9984436 60.12161255 C-27.00813225 58.01728038 -26.01806575 55.91283318 -25.02807617 53.80834961 C-21.91062268 47.18177949 -18.7914101 40.55605215 -15.66671753 33.93289185 C-14.19410559 30.81126486 -12.72238503 27.68921801 -11.25073242 24.56713867 C-10.55033141 23.08190254 -9.84949583 21.59687124 -9.14819336 20.11206055 C-8.17450965 18.05048838 -7.20233959 15.98820853 -6.23046875 13.92578125 C-5.40131958 12.16874878 -5.40131958 12.16874878 -4.55541992 10.3762207 C-2.97274085 6.94083082 -1.47411351 3.4830333 0 0 Z M0 69 C-5.84289878 80.48138992 -11.34156331 92.09242441 -16.6875 103.8125 C-17.4274833 105.42915141 -18.16771697 107.04568824 -18.90820312 108.66210938 C-20.31608763 111.73638925 -21.7207187 114.81211968 -23.12255859 117.88916016 C-24.28293394 120.43505611 -25.45296735 122.9754864 -26.63134766 125.51318359 C-27.31849854 126.9974585 -27.31849854 126.9974585 -28.01953125 128.51171875 C-28.40858643 129.34533936 -28.7976416 130.17895996 -29.19848633 131.0378418 C-30.12605096 132.95532285 -30.12605096 132.95532285 -30 135 C-10.53 135 8.94 135 29 135 C26.67167588 127.88219928 26.67167588 127.88219928 23.90283203 121.0378418 C23.51878204 120.17632004 23.13473206 119.31479828 22.73904419 118.4271698 C22.33273773 117.52694595 21.92643127 116.62672211 21.5078125 115.69921875 C21.07999481 114.74159134 20.65217712 113.78396393 20.21139526 112.7973175 C18.85324993 109.75890837 17.48945278 106.72308119 16.125 103.6875 C14.33381837 99.69235282 12.5450712 95.69612231 10.7578125 91.69921875 C10.33389221 90.75190887 9.90997192 89.804599 9.47320557 88.82858276 C6.54195949 82.26122575 3.69271336 75.66941082 1 69 C0.67 69 0.34 69 0 69 Z " fill="#303333" transform="translate(773,155)"/>
<path d="M0 0 C6.92851353 5.77741555 14.04253539 13.15740545 14.9375 22.4375 C9.94017464 25.88262582 4.8546118 29.19031971 -0.3125 32.375 C-1.28703125 32.98214844 -2.2615625 33.58929688 -3.265625 34.21484375 C-6.0625 35.4375 -6.0625 35.4375 -8.75390625 35.390625 C-11.6869446 34.17969208 -12.27662378 33.02478108 -13.75 30.25 C-17.7763554 23.74986841 -23.78476803 20.19867639 -31.0625 18.0625 C-40.79049293 16.16769013 -49.77114382 17.49785768 -58.4375 22.3125 C-63.68966201 26.5642502 -66.38456609 30.7371582 -67.35546875 37.46875 C-67.78517666 44.06534713 -65.84971265 49.08526276 -62.0625 54.4375 C-55.5968449 60.26339055 -47.84473744 63.51111026 -39.82681274 66.63659668 C-36.60230499 67.89683654 -33.39773215 69.20606191 -30.19140625 70.51171875 C-29.56648788 70.76535187 -28.94156952 71.01898499 -28.29771423 71.28030396 C-16.82506133 75.95676636 -6.28090397 80.98176974 2.9375 89.4375 C4.01257813 90.39269531 4.01257813 90.39269531 5.109375 91.3671875 C14.24169683 99.9158647 20.1669777 111.21134054 21.11450195 123.78662109 C21.63054256 144.20209205 19.10513707 162.58361615 4.5246582 178.1315918 C-10.21064569 192.90605278 -27.81694129 196.70852208 -48.11083984 196.75878906 C-56.49327258 196.67240833 -63.36178585 195.94114246 -71.0625 192.4375 C-72.14724609 192.004375 -72.14724609 192.004375 -73.25390625 191.5625 C-88.69239975 184.79494121 -99.39522335 170.19067004 -105.45703125 154.92578125 C-107.39523893 149.02897273 -108.88204104 143.64259647 -108.0625 137.4375 C-103.63232147 134.48404765 -98.84733866 133.86247136 -93.6875 132.75 C-92.6459375 132.51216797 -91.604375 132.27433594 -90.53125 132.02929688 C-89.52320313 131.80951172 -88.51515625 131.58972656 -87.4765625 131.36328125 C-86.5582666 131.16130127 -85.6399707 130.95932129 -84.69384766 130.7512207 C-81.88881291 130.41679227 -79.78344937 130.73528978 -77.0625 131.4375 C-76.90394531 132.33210937 -76.74539063 133.22671875 -76.58203125 134.1484375 C-74.51643058 144.85304209 -72.1043151 153.9693734 -63.2890625 160.96875 C-55.31407272 166.22944501 -46.24669237 168.56055524 -36.79296875 166.84375 C-28.19170122 164.52070685 -21.37199537 161.20933053 -16.21484375 153.7734375 C-11.16462073 144.72362888 -9.47516163 134.58650715 -12.28125 124.48828125 C-16.82228296 112.56806973 -26.47503964 106.57725152 -37.64306641 101.49755859 C-41.62873392 99.75126512 -45.65232779 98.09741452 -49.67236328 96.43212891 C-67.82692755 88.90174608 -85.97460872 81.03927747 -95.0625 62.4375 C-95.475 61.66535156 -95.8875 60.89320313 -96.3125 60.09765625 C-101.13103499 49.50691788 -100.83007597 34.75449012 -97.4375 23.75 C-91.27048844 8.62255702 -81.0347924 -2.02150623 -66.0625 -8.5625 C-44.30644351 -17.07080385 -18.72406226 -13.87073937 0 0 Z " fill="#303333" transform="translate(558.0625,171.5625)"/>
<path d="M0 0 C1.3096875 0.00322266 2.619375 0.00644531 3.96875 0.00976562 C5.2784375 -0.00634766 6.588125 -0.02246094 7.9375 -0.0390625 C9.1853125 -0.03970703 10.433125 -0.04035156 11.71875 -0.04101562 C12.86859375 -0.04399658 14.0184375 -0.04697754 15.203125 -0.05004883 C16.11578125 0.07281494 17.0284375 0.19567871 17.96875 0.32226562 C20.4425991 4.03303928 20.24517559 6.85613987 20.21598816 11.14845276 C20.21840257 11.95406472 20.22081699 12.75967667 20.22330457 13.58970112 C20.22895547 16.298245 20.220268 19.00655448 20.21166992 21.71508789 C20.21274245 23.65314803 20.2146807 25.59120786 20.21742249 27.52926636 C20.2222783 32.79974761 20.21460617 38.07014446 20.20446944 43.34061551 C20.19570189 48.84767645 20.19744613 54.35473465 20.1978302 59.86180115 C20.19689303 69.1099489 20.18820156 78.35806389 20.17456055 87.60620117 C20.15882984 98.310894 20.15356257 109.01555093 20.1542961 119.72025448 C20.15490566 130.00333186 20.14980706 140.2863975 20.14150429 150.56947136 C20.13796636 154.95261667 20.13614031 159.33575783 20.13561058 163.7189045 C20.13460875 168.87589846 20.12852526 174.03286208 20.11844444 179.18984604 C20.11551457 181.08698656 20.11429505 182.98413057 20.11487198 184.88127327 C20.11535993 187.4619022 20.10973411 190.04244514 20.10246277 192.62306213 C20.10401137 193.38170691 20.10555997 194.14035168 20.1071555 194.92198569 C20.08292899 200.09390764 20.08292899 200.09390764 18.96875 202.32226562 C9.06875 202.32226562 -0.83125 202.32226562 -11.03125 202.32226562 C-12.57710152 199.23056259 -12.1718472 195.97131158 -12.16496277 192.57836914 C-12.1683611 191.36510751 -12.1683611 191.36510751 -12.17182809 190.12733555 C-12.17818645 187.40193337 -12.17733756 184.67658068 -12.17651367 181.95117188 C-12.17950398 180.00340714 -12.18290621 178.05564299 -12.18669128 176.10787964 C-12.19554761 170.80637681 -12.19787006 165.5048901 -12.19850707 160.20338058 C-12.19945469 155.78455337 -12.20313121 151.36572994 -12.20667917 146.94690418 C-12.21482961 136.52677533 -12.21726283 126.10665511 -12.21655273 115.68652344 C-12.21595149 104.91992291 -12.22651126 94.15337241 -12.2422964 83.38678455 C-12.25534854 74.15706298 -12.26073763 64.92735781 -12.26009732 55.69762707 C-12.25984169 50.17886282 -12.26272889 44.66014303 -12.27327538 39.14138794 C-12.28291755 33.95402386 -12.28306239 28.76674709 -12.27575874 23.57938004 C-12.27470811 21.67094928 -12.27710392 19.76251321 -12.2831192 17.85409164 C-12.29077473 15.2580106 -12.28623752 12.662236 -12.27848816 10.06616211 C-12.28363172 9.30294427 -12.28877529 8.53972643 -12.29407471 7.75338078 C-12.23469637 -1.18747981 -7.62490959 0.04332335 0 0 Z " fill="#303333" transform="translate(629.03125,165.677734375)"/>
</svg>
